<?xml version="1.0" encoding="UTF-8"?>
<!DOCTYPE svg PUBLIC "-//W3C//DTD SVG 1.1//EN" "http://www.w3.org/Graphics/SVG/1.1/DTD/svg11.dtd">
<!-- Creator: CorelDRAW -->
<svg xmlns="http://www.w3.org/2000/svg" xml:space="preserve" width="22.2036mm" height="22.5707mm" version="1.1" style="shape-rendering:geometricPrecision; text-rendering:geometricPrecision; image-rendering:optimizeQuality; fill-rule:evenodd; clip-rule:evenodd"
viewBox="0 0 105.75 107.5"
 xmlns:xlink="http://www.w3.org/1999/xlink"
 xmlns:xodm="http://www.corel.com/coreldraw/odm/2003">
 <defs>
  <style type="text/css">
   <![CDATA[
    .fil1 {fill:black}
    .fil0 {fill:#6699FF}
   ]]>
  </style>
 </defs>
 <g id="Layer_x0020_1">
  <metadata id="CorelCorpID_0Corel-Layer"/>
  <g id="_2697899453632">
   <path class="fil0" d="M58.42 6.94l44.33 46.04c4.45,4.62 3.78,12.07 -0.93,16.62l-35.63 34.31c-4.72,4.54 -12.19,4.92 -16.64,0.31l-44.33 -46.04c-1.82,-1.89 -2.83,-4.26 -2.98,-6.92l-2.21 -37.96c-0.21,-3.64 1.23,-7.12 3.91,-9.7 2.68,-2.58 6.21,-3.9 9.84,-3.55l37.85 3.64c2.65,0.25 4.98,1.35 6.8,3.24z"/>
   <path class="fil1" d="M53.15 12.02l44.33 46.04c1.63,1.7 1.39,4.6 -0.55,6.46l-35.63 34.31c-1.94,1.86 -4.85,2 -6.48,0.31l-44.33 -46.04c-0.67,-0.69 -1.02,-1.51 -1.08,-2.52l-1.24 -21.22 -0.98 -16.73c-0.09,-1.46 0.48,-2.84 1.63,-3.94 1.14,-1.1 2.54,-1.62 4,-1.48l16.68 1.61 21.16 2.04c1.01,0.1 1.81,0.48 2.48,1.17z"/>
   <circle class="fil0" transform="matrix(0.36894 -0.355285 0.342137 0.355285 16.2033 16.3416)" r="8.51"/>
   <path class="fil0" d="M78.17 71.73l-20.31 20.31 -20.31 -20.31c-5.61,-5.61 -5.61,-14.7 0,-20.31 5.61,-5.61 14.7,-5.61 20.31,0 5.61,-5.61 14.7,-5.61 20.31,0 5.61,5.61 5.61,14.7 0,20.31z"/>
  </g>
 </g>
</svg>
