<?xml version="1.0" encoding="UTF-8"?>
<!DOCTYPE svg PUBLIC "-//W3C//DTD SVG 1.1//EN" "http://www.w3.org/Graphics/SVG/1.1/DTD/svg11.dtd">
<!-- Creator: CorelDRAW -->
<svg xmlns="http://www.w3.org/2000/svg" xml:space="preserve" width="90.1875mm" height="76.2mm" version="1.1" style="shape-rendering:geometricPrecision; text-rendering:geometricPrecision; image-rendering:optimizeQuality; fill-rule:evenodd; clip-rule:evenodd"
viewBox="0 0 3982.94 3365.21"
 xmlns:xlink="http://www.w3.org/1999/xlink"
 xmlns:xodm="http://www.corel.com/coreldraw/odm/2003">
 <defs>
  <style type="text/css">
   <![CDATA[
    .fil29 {fill:none}
    .fil23 {fill:#1A2E35;fill-rule:nonzero}
    .fil12 {fill:#263238;fill-rule:nonzero}
    .fil2 {fill:#5A8CF0;fill-rule:nonzero}
    .fil1 {fill:#E0E0E0;fill-rule:nonzero}
    .fil22 {fill:#EB827E;fill-rule:nonzero}
    .fil0 {fill:#EBEBEB;fill-rule:nonzero}
    .fil21 {fill:#FCC1BB;fill-rule:nonzero}
    .fil25 {fill:#FFC3BD;fill-rule:nonzero}
    .fil11 {fill:white;fill-rule:nonzero}
    .fil13 {fill:black;fill-rule:nonzero;fill-opacity:0.039216}
    .fil17 {fill:white;fill-rule:nonzero;fill-opacity:0.078431}
    .fil28 {fill:white;fill-rule:nonzero;fill-opacity:0.090196}
    .fil19 {fill:black;fill-rule:nonzero;fill-opacity:0.101961}
    .fil18 {fill:white;fill-rule:nonzero;fill-opacity:0.101961}
    .fil27 {fill:white;fill-rule:nonzero;fill-opacity:0.160784}
    .fil3 {fill:black;fill-rule:nonzero;fill-opacity:0.200000}
    .fil24 {fill:#1A2E35;fill-rule:nonzero;fill-opacity:0.200000}
    .fil6 {fill:white;fill-rule:nonzero;fill-opacity:0.200000}
    .fil9 {fill:white;fill-rule:nonzero;fill-opacity:0.250980}
    .fil14 {fill:black;fill-rule:nonzero;fill-opacity:0.301961}
    .fil15 {fill:white;fill-rule:nonzero;fill-opacity:0.301961}
    .fil16 {fill:white;fill-rule:nonzero;fill-opacity:0.400000}
    .fil26 {fill:black;fill-rule:nonzero;fill-opacity:0.501961}
    .fil8 {fill:#263238;fill-rule:nonzero;fill-opacity:0.501961}
    .fil4 {fill:white;fill-rule:nonzero;fill-opacity:0.501961}
    .fil5 {fill:white;fill-rule:nonzero;fill-opacity:0.600000}
    .fil20 {fill:white;fill-rule:nonzero;fill-opacity:0.701961}
    .fil7 {fill:white;fill-rule:nonzero;fill-opacity:0.800000}
    .fil10 {fill:white;fill-rule:nonzero;fill-opacity:0.901961}
   ]]>
  </style>
     <clipPath id="id0">
      <rect width="3955.99" height="3365.21"/>
     </clipPath>
 </defs>
 <g id="Layer_x0020_1">
  <metadata id="CorelCorpID_0Corel-Layer"/>
  <g id="_2332945570224">
   <g>
    <g style="clip-path:url(#id0)">
     <image x="-0" y="0" width="3955.99" height="3365.21" xlink:href="admin_Images\admin_ImgID1.png"/>
    </g>
    <g>
     <rect class="fil0" x="2766.09" y="3133.42" width="88.6" height="2.55"/>
     <rect class="fil0" x="3521.18" y="3011.07" width="195.66" height="2.55"/>
     <rect class="fil0" x="818.08" y="3071.23" width="955.14" height="2.55"/>
     <polygon class="fil1" points="397.1,845.39 427.58,835.29 427.58,687.25 397.1,687.25 "/>
     <g id="freepik--Screens--inject-3">
      <polygon class="fil2" points="2020.78,1844.57 1829.71,1844.57 1921.47,1554.09 2112.53,1554.09 "/>
      <polygon class="fil3" points="1894.65,1638.92 2085.72,1638.92 2112.53,1554.09 1921.47,1554.09 "/>
      <rect class="fil2" x="1806.36" y="1826.12" width="365.62" height="44.15"/>
      <polygon class="fil4" points="1806.36,1870.27 2171.98,1870.27 2171.98,1826.12 1806.36,1826.12 "/>
      <polygon class="fil5" points="1806.36,1870.27 1989.17,1870.27 1989.17,1826.12 1806.36,1826.12 "/>
      <polygon class="fil2" points="3588.68,1490.98 3522.11,729.97 2479.99,821.83 1429.82,821.83 371.61,729.97 351.22,750.36 417.8,1511.37 1476.01,1603.24 1476.01,1603.24 2526.18,1603.24 2526.18,1603.24 3568.29,1511.37 "/>
      <polygon class="fil6" points="3588.68,1490.98 3522.11,729.97 2479.99,821.83 1429.82,821.83 371.61,729.97 438.19,1490.98 1496.41,1582.84 1496.41,1582.84 2546.58,1582.84 2546.58,1582.84 "/>
      <polygon class="fil7" points="2574.17,1549.18 3555.63,1463.31 3494.41,763.5 2512.94,849.36 "/>
      <path class="fil8" d="M2697.16 920.22c-0.32,0.03 -0.64,0.04 -0.97,0.04 -6.05,0 -10.95,-4.9 -10.95,-10.95 0,-5.67 4.34,-10.41 9.99,-10.91l246.84 -21.71c0.35,-0.03 0.71,-0.05 1.07,-0.05 6.02,0 10.91,4.88 10.91,10.91 0,5.61 -4.26,10.31 -9.84,10.86l-247.05 21.82z"/>
      <g>
       <path class="fil9" d="M2697.16 920.22c-0.32,0.03 -0.64,0.04 -0.97,0.04 -6.05,0 -10.95,-4.9 -10.95,-10.95 0,-5.67 4.34,-10.41 9.99,-10.91l246.84 -21.71c0.35,-0.03 0.71,-0.05 1.07,-0.05 6.02,0 10.91,4.88 10.91,10.91 0,5.61 -4.26,10.31 -9.84,10.86l-247.05 21.82z"/>
      </g>
      <path class="fil8" d="M3098.77 884.84c-0.32,0.03 -0.64,0.04 -0.97,0.04 -6.05,0 -10.95,-4.9 -10.95,-10.95 0,-5.67 4.33,-10.41 9.98,-10.91l246.84 -21.72c0.13,0 0.26,0 0.4,0 6.02,0 10.91,4.88 10.91,10.91 0,5.47 -4.05,10.1 -9.48,10.81l-246.74 21.82z"/>
      <g>
       <path class="fil9" d="M3098.77 884.84c-0.32,0.03 -0.64,0.04 -0.97,0.04 -6.05,0 -10.95,-4.9 -10.95,-10.95 0,-5.67 4.33,-10.41 9.98,-10.91l246.84 -21.72c0.13,0 0.26,0 0.4,0 6.02,0 10.91,4.88 10.91,10.91 0,5.47 -4.05,10.1 -9.48,10.81l-246.74 21.82z"/>
      </g>
      <ellipse class="fil2" transform="matrix(0.871734 -0.0382132 0.0382132 0.871734 2833.95 1064.22)" rx="143.95" ry="145.01"/>
      <g>
       <path class="fil10" d="M2779.75 1129.44l-14.27 1.23c-0.18,0.01 -0.36,0.02 -0.53,0.02 -3.49,0 -6.4,-2.66 -6.7,-6.14l-5.91 -67.49c-0.02,-0.21 -0.04,-0.43 -0.04,-0.64 0,-3.43 2.62,-6.3 6.05,-6.6l14.27 -1.33c0.18,-0.01 0.36,-0.02 0.54,-0.02 3.49,0 6.4,2.66 6.7,6.14l5.91 67.49c0.02,0.22 0.03,0.43 0.03,0.65 0,3.45 -2.61,6.34 -6.05,6.69z"/>
       <path class="fil10" d="M2798.41 1043.49c9.17,-9.07 32.22,-34.76 32.12,-62.4 0.04,-7.63 6.24,-13.8 13.86,-13.8 4.62,0 8.95,2.31 11.52,6.15 5.1,8.87 6.32,25.69 -2.85,57.1l35.28 -3.06c0.69,-0.06 1.38,-0.09 2.07,-0.09 8.74,0 16.77,4.82 20.88,12.53l0 0c1.89,3.51 2.88,7.44 2.88,11.43 0,1.54 -0.15,3.07 -0.44,4.58l-10.2 53.22c-2.17,11.22 -11.99,19.32 -23.42,19.32 -0.52,0 -1.04,-0.02 -1.55,-0.05l-67.4 -4.79c-5.38,-0.55 -9.65,-4.81 -10.19,-10.19l-5.3 -60.67c-0.09,-0.58 -0.14,-1.17 -0.14,-1.76 0,-2.77 1.03,-5.46 2.89,-7.52z"/>
      </g>
      <path class="fil10" d="M3361.16 1023.14c-3.07,-69.81 -61.75,-123.93 -131.05,-120.89 -69.3,3.05 -123,62.12 -119.92,131.93 3.07,69.81 61.75,123.93 131.05,120.88 69.3,-3.05 122.99,-62.12 119.92,-131.93z"/>
      <path class="fil2" d="M3170.76 973.75l-14.27 1.22c-3.48,0.3 -6.15,3.21 -6.15,6.7 0,0.21 0.01,0.42 0.03,0.64l5.92 67.39c0.25,3.52 3.18,6.24 6.71,6.24 0.18,0 0.35,-0.01 0.53,-0.02l14.27 -1.32c3.48,-0.3 6.15,-3.22 6.15,-6.7 0,-0.21 -0.01,-0.43 -0.03,-0.64l-5.91 -67.4c-0.24,-3.46 -3.14,-6.15 -6.61,-6.15 -0.21,0 -0.42,0.01 -0.63,0.03l-0 0z"/>
      <path class="fil2" d="M3204.1 1055.01c10.19,7.44 37.72,28.65 42.41,55.87 1.16,6.63 6.92,11.47 13.66,11.47 5.55,0 10.57,-3.32 12.75,-8.41 3.47,-9.58 1.73,-26.41 -12.75,-55.67l35.18 -3.16c9.41,-0.89 17.4,-7.25 20.39,-16.21l0 0c0.94,-2.6 1.41,-5.34 1.41,-8.11 0,-2.76 -0.48,-5.51 -1.41,-8.11l-19.37 -50.98c-3.51,-9.2 -12.34,-15.28 -22.19,-15.28 -1.93,0 -3.86,0.24 -5.74,0.7l-65.56 16.52c-5.07,1.29 -8.61,5.85 -8.61,11.07 0,0.35 0.02,0.71 0.05,1.06l5.3 60.56c0.12,3.41 1.77,6.6 4.48,8.67l0 0z"/>
      <rect class="fil2" transform="matrix(0.869197 -0.0766564 0.0766564 0.869197 2727.22 1388.32)" width="85.65" height="99.09"/>
      <polygon class="fil10" points="2809.28,1467.85 2883.73,1461.29 2877.79,1393.95 2803.34,1400.51 "/>
      <polygon class="fil10" points="2958.18,1454.66 3032.62,1448.09 3018.97,1293.31 2944.53,1299.88 "/>
      <polygon class="fil10" points="3107.15,1441.59 3181.6,1435.03 3166.32,1261.76 3091.87,1268.33 "/>
      <polygon class="fil10" points="3256,1428.51 3330.44,1421.95 3318.56,1287.28 3244.12,1293.84 "/>
      <rect class="fil2" transform="matrix(0.869197 -0.0766564 0.0766564 0.869197 2871.37 1320.35)" width="85.65" height="162.07"/>
      <rect class="fil2" transform="matrix(0.869197 -0.0766564 0.0766564 0.869197 3015.76 1256.42)" width="85.65" height="220.61"/>
      <rect class="fil2" transform="matrix(0.869197 -0.0766564 0.0766564 0.869197 3167.87 1280.22)" width="85.65" height="178.07"/>
      <rect class="fil2" transform="matrix(0.869197 -0.0766564 0.0766564 0.869197 3309.21 1181.4)" width="85.65" height="276.69"/>
      <polygon class="fil7" points="405.05,763.21 466.33,1463.05 1462.86,1549.61 1401.69,849.77 "/>
      <path class="fil11" d="M1116.82 1087.23l-534.77 -46.08c-23.1,-2.83 -41.36,-20.97 -44.35,-44.04l-6.73 -77.08c-0.19,-1.42 -0.28,-2.86 -0.28,-4.29 0,-18.19 14.75,-32.93 32.93,-32.93 1.52,0 3.06,0.11 4.56,0.31l534.87 45.89c23.21,2.59 41.56,20.86 44.26,44.04l6.83 77.08c0.18,1.42 0.27,2.84 0.27,4.27 0,18.3 -14.84,33.14 -33.14,33.14 -1.49,0 -2.99,-0.1 -4.46,-0.3l-0 0z"/>
      <path class="fil2" d="M670.55 969.77c0.21,1.64 0.32,3.29 0.32,4.95 0,21.84 -17.71,39.56 -39.56,39.56 -1.77,0 -3.55,-0.12 -5.3,-0.36 -27.76,-3.1 -49.75,-24.88 -53.12,-52.61 -0.2,-1.64 -0.31,-3.3 -0.31,-4.95 0,-21.9 17.76,-39.66 39.66,-39.66 1.77,0 3.56,0.13 5.31,0.36 27.75,3.16 49.7,24.97 53.01,52.71l-0 0z"/>
      <path class="fil12" d="M732.84 948.26c-6,-0.7 -10.76,-5.42 -11.51,-11.42 -0.06,-0.39 -0.09,-0.79 -0.09,-1.19 0,-4.73 3.83,-8.57 8.57,-8.57 0.57,0 1.15,0.06 1.71,0.17l327.8 28.45c6.02,0.67 10.8,5.4 11.52,11.42 0.06,0.4 0.08,0.8 0.08,1.19 0,4.73 -3.83,8.57 -8.57,8.57 -0.57,0 -1.15,-0.06 -1.71,-0.17l-327.8 -28.45z"/>
      <path class="fil12" d="M739.47 1024.11c-6,-0.7 -10.76,-5.42 -11.51,-11.42 -0.06,-0.39 -0.09,-0.79 -0.09,-1.19 0,-4.73 3.83,-8.57 8.57,-8.57 0.57,0 1.15,0.06 1.71,0.18l191.98 16.62c6.02,0.67 10.8,5.4 11.52,11.42 0.05,0.36 0.08,0.73 0.08,1.1 0,4.73 -3.83,8.57 -8.57,8.57 -0.4,0 -0.79,-0.03 -1.19,-0.08l-192.5 -16.62z"/>
      <path class="fil12" d="M736.21 986.19c-6.02,-0.67 -10.8,-5.4 -11.52,-11.42 -0.06,-0.4 -0.08,-0.8 -0.08,-1.2 0,-4.73 3.83,-8.56 8.57,-8.56 0.57,0 1.15,0.06 1.71,0.17l278.04 24.17c6.01,0.7 10.77,5.42 11.52,11.42 0.05,0.37 0.07,0.74 0.07,1.11 0,4.73 -3.83,8.56 -8.56,8.56 -0.4,0 -0.8,-0.03 -1.2,-0.08l-278.55 -24.17z"/>
      <g>
       <path class="fil4" d="M732.84 948.26c-6,-0.7 -10.76,-5.42 -11.51,-11.42 -0.06,-0.39 -0.09,-0.79 -0.09,-1.19 0,-4.73 3.83,-8.57 8.57,-8.57 0.57,0 1.15,0.06 1.71,0.17l327.8 28.45c6.02,0.67 10.8,5.4 11.52,11.42 0.06,0.4 0.08,0.8 0.08,1.19 0,4.73 -3.83,8.57 -8.57,8.57 -0.57,0 -1.15,-0.06 -1.71,-0.17l-327.8 -28.45z"/>
       <path class="fil4" d="M739.47 1024.11c-6,-0.7 -10.76,-5.42 -11.51,-11.42 -0.06,-0.39 -0.09,-0.79 -0.09,-1.19 0,-4.73 3.83,-8.57 8.57,-8.57 0.57,0 1.15,0.06 1.71,0.18l191.98 16.62c6.02,0.67 10.8,5.4 11.52,11.42 0.05,0.36 0.08,0.73 0.08,1.1 0,4.73 -3.83,8.57 -8.57,8.57 -0.4,0 -0.79,-0.03 -1.19,-0.08l-192.5 -16.62z"/>
       <path class="fil4" d="M736.21 986.19c-6.02,-0.67 -10.8,-5.4 -11.52,-11.42 -0.06,-0.4 -0.08,-0.8 -0.08,-1.2 0,-4.73 3.83,-8.56 8.57,-8.56 0.57,0 1.15,0.06 1.71,0.17l278.04 24.17c6.01,0.7 10.77,5.42 11.52,11.42 0.05,0.37 0.07,0.74 0.07,1.11 0,4.73 -3.83,8.56 -8.56,8.56 -0.4,0 -0.8,-0.03 -1.2,-0.08l-278.55 -24.17z"/>
      </g>
      <path class="fil2" d="M1144.75 856.09l-62.5 -4.8c-0.47,-0.05 -0.95,-0.08 -1.43,-0.08 -7.04,0 -12.74,5.71 -12.74,12.74 0,0.53 0.03,1.08 0.1,1.61l5.1 52.1c1.2,8.79 8.21,15.63 17.02,16.62l18.15 1.43 8.87 12.75c1.16,2.14 3.4,3.48 5.83,3.48 2.14,0 4.14,-1.03 5.38,-2.76l6.32 -11.62 18.05 1.42c0.51,0.07 1.03,0.1 1.55,0.1 6.98,0 12.64,-5.66 12.64,-12.64 0,-0.58 -0.04,-1.15 -0.12,-1.73l-5.1 -52c-1.21,-8.81 -8.28,-15.67 -17.13,-16.62l-0 0z"/>
      <g>
       <path class="fil10" d="M1096.63 898.4c-4.5,-3.98 -7.47,-9.44 -8.36,-15.4 -0.2,-0.8 -0.3,-1.63 -0.3,-2.46 0,-5.63 4.57,-10.2 10.2,-10.2 0.86,0 1.71,0.11 2.55,0.32 7.75,0.72 10.2,4.39 15.6,10.2 4.08,-4.69 6.32,-7.95 14.07,-7.34 7.91,0.49 14.23,6.77 14.78,14.68 0.04,0.42 0.05,0.85 0.05,1.28 0,4.97 -2.14,9.7 -5.86,12.99l-19.48 19.17 -23.24 -23.25z"/>
      </g>
      <path class="fil11" d="M1263.03 1285.23l-534.87 -46.49c-23.19,-2.62 -41.57,-20.85 -44.35,-44.04l-6.73 -76.98c-0.18,-1.38 -0.26,-2.78 -0.26,-4.17 0,-18.3 14.84,-33.14 33.14,-33.14 1.48,0 2.98,0.1 4.44,0.3l534.77 46.49c23.18,2.57 41.56,20.78 44.34,43.94l6.73 77.08c0.19,1.42 0.28,2.85 0.28,4.28 0,18.24 -14.79,33.04 -33.03,33.04 -1.49,0 -2.99,-0.11 -4.46,-0.3z"/>
      <path class="fil2" d="M816.55 1167.98c0.22,1.67 0.33,3.37 0.33,5.05 0,21.85 -17.71,39.56 -39.56,39.56 -1.78,0 -3.56,-0.12 -5.32,-0.36 -27.76,-3.16 -49.71,-24.98 -53.02,-52.72 -0.2,-1.63 -0.31,-3.29 -0.31,-4.94 0,-21.84 17.71,-39.56 39.56,-39.56 1.77,0 3.55,0.12 5.3,0.36 27.74,3.07 49.74,24.89 53.02,52.61l-0.01 -0z"/>
      <path class="fil12" d="M879.05 1146.26c-6.01,-0.7 -10.76,-5.42 -11.52,-11.42 -0.06,-0.4 -0.09,-0.8 -0.09,-1.2 0,-4.73 3.84,-8.57 8.57,-8.57 0.57,0 1.15,0.06 1.71,0.18l327.29 28.03c6.01,0.7 10.77,5.42 11.52,11.42 0.06,0.4 0.09,0.79 0.09,1.19 0,4.73 -3.83,8.57 -8.57,8.57 -0.57,0 -1.15,-0.06 -1.71,-0.17l-327.29 -28.04z"/>
      <path class="fil12" d="M885.68 1222.12c-6.01,-0.75 -10.77,-5.5 -11.52,-11.52 -0.03,-0.33 -0.05,-0.66 -0.05,-0.99 0,-4.79 3.88,-8.66 8.67,-8.66 0.36,0 0.72,0.02 1.07,0.07l191.98 16.72c6.02,0.67 10.8,5.4 11.52,11.42 0.05,0.36 0.08,0.73 0.08,1.1 0,4.73 -3.83,8.56 -8.57,8.56 -0.4,0 -0.79,-0.03 -1.19,-0.08l-191.99 -16.61z"/>
      <path class="fil12" d="M882.42 1183.89c-6.02,-0.67 -10.8,-5.4 -11.52,-11.42 -0.04,-0.36 -0.07,-0.73 -0.07,-1.1 0,-4.73 3.83,-8.57 8.56,-8.57 0.4,0 0.8,0.03 1.2,0.08l278.04 24.06c5.98,0.71 10.71,5.43 11.42,11.42 0.11,0.57 0.17,1.14 0.17,1.72 0,4.73 -3.83,8.57 -8.56,8.57 -0.4,0 -0.8,-0.03 -1.2,-0.08l-278.04 -24.67z"/>
      <g>
       <path class="fil4" d="M879.05 1146.26c-6.01,-0.7 -10.76,-5.42 -11.52,-11.42 -0.06,-0.4 -0.09,-0.8 -0.09,-1.2 0,-4.73 3.84,-8.57 8.57,-8.57 0.57,0 1.15,0.06 1.71,0.18l327.29 28.03c6.01,0.7 10.77,5.42 11.52,11.42 0.06,0.4 0.09,0.79 0.09,1.19 0,4.73 -3.83,8.57 -8.57,8.57 -0.57,0 -1.15,-0.06 -1.71,-0.17l-327.29 -28.04z"/>
       <path class="fil4" d="M885.68 1222.12c-6.01,-0.75 -10.77,-5.5 -11.52,-11.52 -0.03,-0.33 -0.05,-0.66 -0.05,-0.99 0,-4.79 3.88,-8.66 8.67,-8.66 0.36,0 0.72,0.02 1.07,0.07l191.98 16.72c6.02,0.67 10.8,5.4 11.52,11.42 0.05,0.36 0.08,0.73 0.08,1.1 0,4.73 -3.83,8.56 -8.57,8.56 -0.4,0 -0.79,-0.03 -1.19,-0.08l-191.99 -16.61z"/>
       <path class="fil4" d="M882.42 1183.89c-6.02,-0.67 -10.8,-5.4 -11.52,-11.42 -0.04,-0.36 -0.07,-0.73 -0.07,-1.1 0,-4.73 3.83,-8.57 8.56,-8.57 0.4,0 0.8,0.03 1.2,0.08l278.04 24.06c5.98,0.71 10.71,5.43 11.42,11.42 0.11,0.57 0.17,1.14 0.17,1.72 0,4.73 -3.83,8.57 -8.56,8.57 -0.4,0 -0.8,-0.03 -1.2,-0.08l-278.04 -24.67z"/>
      </g>
      <path class="fil2" d="M1290.96 1054.09l-62.5 -4.8c-0.51,-0.06 -1.02,-0.09 -1.54,-0.09 -6.98,0 -12.64,5.66 -12.64,12.64 0,0.58 0.04,1.16 0.12,1.73l5.1 52c1.12,8.84 8.17,15.76 17.02,16.72l18.15 1.43 8.87 12.64c1.12,2.17 3.36,3.54 5.8,3.54 2.11,0 4.08,-1.02 5.31,-2.72l6.42 -11.73 17.95 1.43c0.44,0.05 0.88,0.08 1.32,0.08 6.98,0 12.64,-5.66 12.64,-12.64 0,-0.53 -0.04,-1.07 -0.1,-1.6l-5.2 -51.9c-1.03,-8.78 -7.95,-15.7 -16.72,-16.72l0 0z"/>
      <g>
       <path class="fil10" d="M1242.84 1096.3c-4.56,-3.98 -7.54,-9.5 -8.36,-15.5 -0.19,-0.77 -0.28,-1.56 -0.28,-2.36 0,-5.63 4.57,-10.19 10.2,-10.19 0.85,0 1.7,0.11 2.52,0.31 7.64,0.61 10.2,4.39 15.6,10.2 3.98,-4.69 6.32,-8.06 13.97,-7.34 7.97,0.4 14.38,6.72 14.89,14.68 0.01,0.35 0.03,0.71 0.03,1.06 0,5 -2.13,9.77 -5.85,13.12l-19.48 19.27 -23.24 -23.25z"/>
      </g>
      <path class="fil11" d="M1193.19 1477.01l-534.87 -46.49c-23.22,-2.58 -41.61,-20.84 -44.35,-44.04l-6.73 -76.98c-0.19,-1.42 -0.28,-2.85 -0.28,-4.28 0,-18.24 14.79,-33.04 33.04,-33.04 1.49,0 2.99,0.11 4.46,0.3l534.87 46.49c23.22,2.58 41.6,20.84 44.35,44.05l6.73 76.98c0.19,1.41 0.29,2.84 0.29,4.27 0,18.24 -14.79,33.04 -33.04,33.04 -1.49,0 -2.99,-0.11 -4.46,-0.3l0 -0z"/>
      <path class="fil2" d="M746.71 1359.76c0.22,1.68 0.33,3.37 0.33,5.05 0,21.85 -17.71,39.56 -39.56,39.56 -1.78,0 -3.56,-0.12 -5.32,-0.36 -27.75,-3.16 -49.7,-24.98 -53.02,-52.71 -0.2,-1.64 -0.31,-3.29 -0.31,-4.95 0,-21.84 17.71,-39.56 39.56,-39.56 1.78,0 3.56,0.12 5.31,0.36 27.71,3.14 49.67,24.92 53.02,52.61l0 -0z"/>
      <path class="fil12" d="M809.21 1338.05c-6.02,-0.67 -10.8,-5.4 -11.52,-11.42 -0.04,-0.37 -0.07,-0.74 -0.07,-1.11 0,-4.73 3.84,-8.57 8.57,-8.57 0.4,0 0.8,0.03 1.2,0.09l327.79 28.45c6.1,0.73 10.89,5.6 11.51,11.73 0.05,0.36 0.08,0.73 0.08,1.1 0,4.73 -3.84,8.57 -8.57,8.57 -0.4,0 -0.8,-0.03 -1.2,-0.09l-327.8 -28.75z"/>
      <path class="fil12" d="M815.84 1413.9c-6,-0.7 -10.76,-5.42 -11.51,-11.42 -0.05,-0.36 -0.07,-0.73 -0.07,-1.09 0,-4.78 3.88,-8.66 8.66,-8.66 0.37,0 0.73,0.02 1.09,0.07l264.37 22.94c6.01,0.7 10.77,5.42 11.53,11.42 0.06,0.4 0.08,0.8 0.08,1.2 0,4.73 -3.83,8.57 -8.56,8.57 -0.57,0 -1.15,-0.06 -1.72,-0.18l-263.87 -22.84z"/>
      <path class="fil12" d="M812.47 1375.97c-6,-0.7 -10.76,-5.42 -11.51,-11.42 -0.06,-0.39 -0.09,-0.79 -0.09,-1.19 0,-4.73 3.83,-8.57 8.57,-8.57 0.57,0 1.15,0.06 1.71,0.18l236.95 20.39c6,0.74 10.74,5.43 11.52,11.42 0.11,0.56 0.17,1.13 0.17,1.7 0,4.79 -3.88,8.67 -8.67,8.67 -0.57,0 -1.14,-0.06 -1.69,-0.17l-236.96 -21z"/>
      <g>
       <path class="fil9" d="M809.21 1338.05c-6.02,-0.67 -10.8,-5.4 -11.52,-11.42 -0.04,-0.37 -0.07,-0.74 -0.07,-1.11 0,-4.73 3.84,-8.57 8.57,-8.57 0.4,0 0.8,0.03 1.2,0.09l327.79 28.45c6.1,0.73 10.89,5.6 11.51,11.73 0.05,0.36 0.08,0.73 0.08,1.1 0,4.73 -3.84,8.57 -8.57,8.57 -0.4,0 -0.8,-0.03 -1.2,-0.09l-327.8 -28.75z"/>
       <path class="fil4" d="M815.84 1413.9c-6,-0.7 -10.76,-5.42 -11.51,-11.42 -0.05,-0.36 -0.07,-0.73 -0.07,-1.09 0,-4.78 3.88,-8.66 8.66,-8.66 0.37,0 0.73,0.02 1.09,0.07l264.37 22.94c6.01,0.7 10.77,5.42 11.53,11.42 0.06,0.4 0.08,0.8 0.08,1.2 0,4.73 -3.83,8.57 -8.56,8.57 -0.57,0 -1.15,-0.06 -1.72,-0.18l-263.87 -22.84z"/>
       <path class="fil9" d="M812.47 1375.97c-6,-0.7 -10.76,-5.42 -11.51,-11.42 -0.06,-0.39 -0.09,-0.79 -0.09,-1.19 0,-4.73 3.83,-8.57 8.57,-8.57 0.57,0 1.15,0.06 1.71,0.18l236.95 20.39c6,0.74 10.74,5.43 11.52,11.42 0.11,0.56 0.17,1.13 0.17,1.7 0,4.79 -3.88,8.67 -8.67,8.67 -0.57,0 -1.14,-0.06 -1.69,-0.17l-236.96 -21z"/>
      </g>
      <path class="fil2" d="M1222.86 1266.37l-62.5 -4.69c-0.51,-0.06 -1.02,-0.09 -1.54,-0.09 -6.98,0 -12.64,5.66 -12.64,12.64 0,0.58 0.04,1.16 0.12,1.73l5.1 52c1.1,8.83 8.17,15.74 17.03,16.62l18.15 1.43 8.87 12.75c1.18,2.12 3.43,3.45 5.87,3.45 2.09,0 4.07,-0.98 5.34,-2.63l6.32 -11.73 18.04 1.43c0.52,0.07 1.04,0.1 1.55,0.1 6.98,0 12.64,-5.66 12.64,-12.64 0,-0.58 -0.04,-1.16 -0.12,-1.73l-5.1 -51.9c-1.2,-8.84 -8.27,-15.73 -17.13,-16.72l-0 0z"/>
      <path class="fil10" d="M1175.14 1324.69l0 0c-2.6,-0.26 -4.67,-2.3 -4.99,-4.89l-1.53 -17.54c-0.01,-0.15 -0.02,-0.29 -0.02,-0.43 0,-2.08 1.69,-3.77 3.77,-3.77 0.15,0 0.29,0 0.43,0.02l-0 0c2.65,0.3 4.74,2.36 5.1,4.99l1.53 17.43c0.02,0.15 0.03,0.3 0.03,0.45 0,2.08 -1.69,3.77 -3.77,3.77 -0.18,0 -0.36,-0.01 -0.54,-0.04l-0 0z"/>
      <path class="fil10" d="M1183.8 1298.08c6.11,-4.24 10.06,-10.96 10.82,-18.35 0,-4.39 6.22,-5.2 8.56,-1.02 0.84,2.55 1.28,5.21 1.28,7.89 0,3.61 -0.79,7.19 -2.3,10.47l11.83 1.02c3.28,0.45 6.13,2.47 7.65,5.4l-0.01 0c0.65,1.13 0.99,2.42 0.99,3.72 0,0.53 -0.06,1.06 -0.16,1.58l-3.47 16.72c-0.67,2.98 -3.32,5.1 -6.37,5.1 -0.67,0 -1.35,-0.1 -1.99,-0.31l-22.63 -5.4c-1.86,-0.49 -3.24,-2.07 -3.47,-3.97l-1.73 -20.39c0.01,-0.91 0.38,-1.79 1.02,-2.44l-0.01 0z"/>
      <polygon class="fil7" points="1463.07,852.42 1524.34,1552.26 2513.33,1552.26 2452.06,852.42 "/>
      <g>
       <path class="fil3" d="M1493.45 1548.99l0 0c-4.29,-0.12 -7.86,-3.38 -8.36,-7.64l-19.27 -220.33c-0.02,-0.23 -0.03,-0.47 -0.03,-0.71 0,-3.83 3.11,-6.93 6.93,-6.93 0.05,0 0.09,0 0.14,0l0 0c4.31,0.04 7.9,3.35 8.26,7.64l19.27 220.33c0.02,0.24 0.04,0.48 0.04,0.72 0,3.82 -3.1,6.93 -6.93,6.93 -0.01,0 -0.03,0 -0.04,0l0 0z"/>
      </g>
      <g>
       <path class="fil3" d="M1470.61 1287.88l0 0c-4.31,-0.08 -7.9,-3.35 -8.36,-7.64l-27.02 -312.71c-0.02,-0.23 -0.04,-0.47 -0.04,-0.71 0,-3.83 3.1,-6.93 6.93,-6.93 0.01,0 0.03,0 0.04,0l-0 0c4.32,0.08 7.91,3.35 8.37,7.64l27.32 312.71c0.02,0.24 0.04,0.48 0.04,0.72 0,3.82 -3.1,6.93 -6.93,6.93 -0.11,0 -0.23,-0 -0.34,-0.01l-0 0z"/>
      </g>
      <g>
       <path class="fil13" d="M1439.82 936.13l0 0c-4.29,-0.12 -7.85,-3.38 -8.36,-7.64l-5.6 -65.15c-0.04,-0.27 -0.05,-0.54 -0.05,-0.82 0,-3.77 3.06,-6.83 6.83,-6.83 0.05,0 0.1,0 0.15,0l0 0c4.32,0.08 7.91,3.35 8.36,7.64l5.61 65.15c0.02,0.24 0.03,0.48 0.03,0.72 0,3.83 -3.1,6.93 -6.93,6.93 -0.01,0 -0.03,0 -0.04,0l-0 0z"/>
      </g>
      <g>
       <path class="fil3" d="M2543.61 1548.99l0 0c-4.31,-0.07 -7.9,-3.35 -8.36,-7.64l-28.04 -320.65c-0.02,-0.24 -0.04,-0.48 -0.04,-0.72 0,-3.82 3.11,-6.93 6.93,-6.93 0.05,0 0.09,0 0.14,0l0 0c4.28,0.12 7.8,3.39 8.26,7.64l28.04 320.65c0.02,0.24 0.04,0.48 0.04,0.72 0,3.82 -3.1,6.93 -6.93,6.93 -0.01,0 -0.03,0 -0.04,0z"/>
      </g>
      <g>
       <path class="fil3" d="M2512.31 1191.02l0 0c-4.31,-0.08 -7.9,-3.35 -8.36,-7.64l-21.82 -249.8c-0.03,-0.27 -0.05,-0.55 -0.05,-0.82 0,-3.77 3.06,-6.83 6.83,-6.83 0.05,0 0.1,0 0.15,0l0 0c4.34,0.03 7.94,3.33 8.36,7.64l21.82 249.8c0.02,0.24 0.04,0.48 0.04,0.72 0,3.83 -3.1,6.93 -6.93,6.93 -0.01,0 -0.03,0 -0.04,0l0 0z"/>
      </g>
      <g>
       <path class="fil3" d="M2486.42 895.86l0 0c-4.31,-0.04 -7.89,-3.36 -8.26,-7.65l-2.24 -24.88c-0.03,-0.23 -0.04,-0.47 -0.04,-0.71 0,-3.83 3.11,-6.93 6.93,-6.93 0.05,0 0.09,0 0.14,0l0 0c4.31,0.04 7.9,3.35 8.26,7.65l2.24 24.88c0.02,0.24 0.04,0.48 0.04,0.72 0,3.82 -3.1,6.93 -6.93,6.93 -0.04,0 -0.09,0 -0.14,0z"/>
      </g>
      <path class="fil2" d="M2336.74 1160.54c-0.02,-0.24 -0.03,-0.48 -0.03,-0.72 0,-5.24 4.25,-9.49 9.49,-9.49 0.04,0 0.09,0 0.12,0 5.83,0.06 10.71,4.43 11.42,10.2l12.14 138.26c0.02,0.23 0.03,0.47 0.03,0.71 0,5.24 -4.25,9.49 -9.49,9.49 -0.04,0 -0.09,0 -0.13,0 -5.83,-0.06 -10.71,-4.43 -11.42,-10.2l-12.14 -138.25z"/>
      <path class="fil12" d="M1537.19 911.25c-5.82,-0.06 -10.7,-4.42 -11.41,-10.19 -0.03,-0.24 -0.03,-0.48 -0.03,-0.72 0,-5.24 4.24,-9.48 9.48,-9.48 0.04,0 0.09,0 0.13,0l240.21 0c5.83,0.06 10.71,4.43 11.42,10.2 0.02,0.23 0.03,0.47 0.03,0.71 0,5.24 -4.25,9.48 -9.49,9.48 -0.04,0 -0.09,0 -0.12,0l-240.22 -0z"/>
      <path class="fil12" d="M1544.12 987.11c-5.82,-0.06 -10.7,-4.42 -11.42,-10.2 -0.02,-0.23 -0.03,-0.47 -0.03,-0.71 0,-5.24 4.25,-9.49 9.49,-9.49 0.04,0 0.09,0 0.13,0l199.43 0c5.83,0.06 10.71,4.43 11.42,10.2 0.02,0.23 0.03,0.47 0.03,0.72 0,5.23 -4.24,9.48 -9.48,9.48 -0.04,0 -0.09,0 -0.13,0l-199.43 -0z"/>
      <path class="fil12" d="M1540.76 949.38c-5.82,-0.06 -10.7,-4.42 -11.41,-10.2 -0.03,-0.23 -0.03,-0.48 -0.03,-0.72 0,-5.24 4.24,-9.48 9.48,-9.48 0.04,0 0.09,0 0.13,0l158.74 0c5.83,0.06 10.71,4.42 11.42,10.2 0.02,0.23 0.03,0.47 0.03,0.71 0,5.24 -4.25,9.48 -9.49,9.48 -0.04,0 -0.09,0 -0.13,0l-158.75 0z"/>
      <g>
       <path class="fil9" d="M1537.19 911.25c-5.82,-0.06 -10.7,-4.42 -11.41,-10.19 -0.03,-0.24 -0.03,-0.48 -0.03,-0.72 0,-5.24 4.24,-9.48 9.48,-9.48 0.04,0 0.09,0 0.13,0l240.21 0c5.83,0.06 10.71,4.43 11.42,10.2 0.02,0.23 0.03,0.47 0.03,0.71 0,5.24 -4.25,9.48 -9.49,9.48 -0.04,0 -0.09,0 -0.12,0l-240.22 -0z"/>
       <path class="fil9" d="M1544.12 987.11c-5.82,-0.06 -10.7,-4.42 -11.42,-10.2 -0.02,-0.23 -0.03,-0.47 -0.03,-0.71 0,-5.24 4.25,-9.49 9.49,-9.49 0.04,0 0.09,0 0.13,0l199.43 0c5.83,0.06 10.71,4.43 11.42,10.2 0.02,0.23 0.03,0.47 0.03,0.72 0,5.23 -4.24,9.48 -9.48,9.48 -0.04,0 -0.09,0 -0.13,0l-199.43 -0z"/>
       <path class="fil4" d="M1540.76 949.38c-5.82,-0.06 -10.7,-4.42 -11.41,-10.2 -0.03,-0.23 -0.03,-0.48 -0.03,-0.72 0,-5.24 4.24,-9.48 9.48,-9.48 0.04,0 0.09,0 0.13,0l158.74 0c5.83,0.06 10.71,4.42 11.42,10.2 0.02,0.23 0.03,0.47 0.03,0.71 0,5.24 -4.25,9.48 -9.49,9.48 -0.04,0 -0.09,0 -0.13,0l-158.75 0z"/>
      </g>
      <path class="fil2" d="M2394.14 1074.38c0.19,1.76 0.29,3.54 0.29,5.31 0,27.08 -21.96,49.04 -49.04,49.04 -0.3,0 -0.61,-0.01 -0.9,-0.01 -30.63,-0.5 -56.05,-23.87 -59.14,-54.34 -0.2,-1.8 -0.3,-3.61 -0.3,-5.41 0,-27.08 21.96,-49.04 49.04,-49.04 0.3,0 0.61,0 0.91,0 30.54,0.83 55.8,24.08 59.14,54.45l-0 -0z"/>
      <path class="fil11" d="M2312.98 1100.28l0 0c-0,0 -0.01,0 -0.02,0 -3.41,0 -6.24,-2.62 -6.51,-6.02l-2.04 -22.84c-0.02,-0.2 -0.04,-0.41 -0.04,-0.61 0,-2.98 2.42,-5.4 5.41,-5.4 0.04,0 0.09,0 0.14,0l0 -0c3.37,0.08 6.17,2.66 6.52,6.01l1.94 22.84c0.02,0.21 0.03,0.41 0.03,0.61 0,2.99 -2.42,5.41 -5.4,5.41 -0.01,0 -0.02,0 -0.04,0z"/>
      <path class="fil11" d="M2324.2 1064.19c7.82,-6.33 12.85,-15.49 13.96,-25.49 0.27,-3.05 2.84,-5.39 5.89,-5.39 2.19,0 4.2,1.21 5.23,3.14 1.1,3.37 1.67,6.9 1.67,10.44 0,4.77 -1.02,9.49 -3,13.83l15.09 0c0.03,0 0.06,0 0.09,0 4.27,0 8.18,2.41 10.1,6.22l0 0c0.84,1.58 1.27,3.34 1.27,5.13 0,0.6 -0.05,1.21 -0.15,1.8l-4.48 22.43c-0.9,4.36 -4.74,7.5 -9.19,7.5 -0.57,0 -1.16,-0.05 -1.72,-0.16l-29.26 -4.59c-2.46,-0.41 -4.34,-2.41 -4.58,-4.89l-2.35 -26.21c-0,-0.11 -0.01,-0.23 -0.01,-0.34 0,-1.29 0.52,-2.53 1.44,-3.43l0 0z"/>
      <path class="fil2" d="M2421.26 1384.94c-3.04,-30.52 -28.47,-53.93 -59.13,-54.44 -0.29,0 -0.61,-0 -0.91,-0 -27.08,0 -49.04,21.96 -49.04,49.04 0,1.81 0.1,3.62 0.3,5.41 3.33,30.37 28.59,53.61 59.13,54.44 0.3,0 0.61,0.01 0.91,0.01 27.08,0 49.04,-21.96 49.04,-49.04 0,-1.81 -0.1,-3.61 -0.3,-5.41l0 0z"/>
      <path class="fil11" d="M2335.62 1358.95l0 0c-0.04,-0 -0.09,-0 -0.13,-0 -2.98,0 -5.4,2.42 -5.4,5.4 0,0.21 0.01,0.42 0.03,0.61l2.35 22.84c0.31,3.38 3.13,5.98 6.52,6.02l0 -0c0.01,0 0.02,0 0.04,0 2.98,0 5.4,-2.42 5.4,-5.4 0,-0.21 -0.01,-0.41 -0.03,-0.61l-1.94 -22.94c-0.45,-3.39 -3.35,-5.91 -6.77,-5.91 -0.02,0 -0.04,0 -0.06,0l0 0z"/>
      <path class="fil11" d="M2352.85 1395.04c8.83,6.22 15.34,15.24 18.45,25.59 0.92,5.81 9.38,7.55 11.42,2.24 2.04,-5.3 0.82,-11.21 -5.51,-24.37l15.29 0c0.08,0 0.17,0.01 0.25,0.01 3.91,0 7.39,-2.45 8.72,-6.13l0 0c0.38,-1.12 0.57,-2.29 0.57,-3.47 0,-1.18 -0.19,-2.35 -0.57,-3.47l-8.46 -22.43c-1.63,-4.46 -5.88,-7.44 -10.63,-7.44 -0.5,0 -1.01,0.04 -1.5,0.1l-28.45 4.59c-2.19,0.34 -3.79,2.22 -3.79,4.43 0,0.15 0,0.3 0.02,0.46l2.35 26.1c0.03,1.47 0.7,2.85 1.84,3.77z"/>
      <ellipse class="fil2" transform="matrix(0.603394 -0.630314 0.630314 0.603394 1988.78 1230.27)" rx="308.48" ry="336.75"/>
      <path class="fil5" d="M2170.25 1030.95c-56.05,-51.96 -129.61,-81.12 -206.05,-81.57 -155.28,0 -270.19,125.92 -256.63,281.2l281.2 0.01 181.48 -199.64z"/>
      <path class="fil3" d="M1772.51 1030.95l216.25 198.82 -24.58 -280.39c-1.32,0 -2.7,-0.03 -4.04,-0.03 -71.12,0 -139.15,29.56 -187.63,81.58l-0.01 0.01z"/>
      <path class="fil2" d="M1772.51 1030.95l216.25 198.82 -24.58 -280.39c-1.32,0 -2.7,-0.03 -4.04,-0.03 -71.12,0 -139.15,29.56 -187.63,81.58l-0.01 0.01z"/>
      <path class="fil14" d="M1772.51 1030.95l216.25 198.82 -24.58 -280.39c-1.32,0 -2.7,-0.03 -4.04,-0.03 -71.12,0 -139.15,29.56 -187.63,81.58l-0.01 0.01z"/>
      <path class="fil15" d="M2013.44 1511.37c155.28,0 270.19,-125.92 256.63,-281.3l-281.3 0 -181.49 198.51c55.92,52.45 129.49,82.02 206.15,82.81l0.01 -0.02z"/>
      <path class="fil12" d="M2197.47 1463.25c0.24,2.19 0.36,4.43 0.36,6.63 0,34.12 -27.67,61.79 -61.79,61.79 -0.31,0 -0.65,-0 -0.97,-0 -38.5,-0.73 -70.42,-30.11 -74.33,-68.41 -0.28,-2.37 -0.42,-4.77 -0.42,-7.16 0,-33.78 27.39,-61.18 61.17,-61.18 0.54,0 1.11,0.02 1.64,0.03 38.47,0.71 70.38,30.04 74.33,68.31l-0 0z"/>
      <path class="fil2" d="M2105.3 1474.67c-5.52,-4.27 -9.18,-10.53 -10.2,-17.44 -0.13,-0.76 -0.2,-1.52 -0.2,-2.29 0,-7.43 6.03,-13.46 13.46,-13.46 0.37,0 0.75,0.01 1.12,0.04 8.97,0 12.33,4.18 18.04,10.2 4.69,-5.91 7.34,-10.2 16.31,-10.2 0.21,0 0.42,-0.01 0.63,-0.01 8.81,0 16.07,6.92 16.5,15.71 0.03,0.45 0.04,0.91 0.04,1.37 0,6.05 -2.45,11.84 -6.77,16.06l-22.53 24.57 -26.41 -24.57z"/>
      <path class="fil12" d="M1811.76 1120.67c0.29,2.4 0.44,4.84 0.44,7.26 0,33.78 -27.39,61.17 -61.17,61.17 -0.54,0 -1.12,-0.01 -1.66,-0.02 -38.51,-0.72 -70.42,-30.11 -74.33,-68.41 -0.27,-2.37 -0.42,-4.77 -0.42,-7.16 0,-33.78 27.39,-61.17 61.17,-61.17 0.54,0 1.1,0.01 1.64,0.02 38.49,0.66 70.43,30.02 74.33,68.31l-0.01 -0z"/>
      <path class="fil2" d="M1786.48 1120.67c0.14,1.33 0.21,2.66 0.21,3.99 0,21.45 -17.4,38.85 -38.85,38.85 -0.2,0 -0.41,-0 -0.61,-0 -24.29,-0.44 -44.43,-18.97 -46.9,-43.13 -0.15,-1.38 -0.23,-2.79 -0.23,-4.18 0,-21.45 17.4,-38.85 38.85,-38.85 0.24,0 0.5,0 0.74,0 24.33,0.46 44.48,19.1 46.8,43.33l-0 0z"/>
      <path class="fil4" d="M1786.48 1120.67c0.14,1.33 0.21,2.66 0.21,3.99 0,21.45 -17.4,38.85 -38.85,38.85 -0.2,0 -0.41,-0 -0.61,-0 -24.29,-0.44 -44.43,-18.97 -46.9,-43.13 -0.15,-1.38 -0.23,-2.79 -0.23,-4.18 0,-21.45 17.4,-38.85 38.85,-38.85 0.24,0 0.5,0 0.74,0 24.33,0.46 44.48,19.1 46.8,43.33l-0 0z"/>
      <path class="fil2" d="M1759.15 1129.85c-4,3.86 -9.36,6.03 -14.93,6.03 -5.57,0 -10.93,-2.16 -14.94,-6.03 -0.68,-0.82 -1.69,-1.3 -2.76,-1.3 -1.97,0 -3.57,1.6 -3.57,3.57 0,1.17 0.57,2.26 1.53,2.93 5.42,5.37 12.76,8.4 20.39,8.4 7.64,0 14.97,-3.02 20.39,-8.4 3.26,-3.26 -2.45,-8.46 -5.71,-5.2l-0.41 0z"/>
      <path class="fil2" d="M1731.93 1106.7c0,4.69 -0.92,8.46 -2.96,8.46 -2.04,0 -3.97,-3.77 -4.39,-8.46 -0.41,-4.69 0.92,-8.46 2.96,-8.46 2.04,0 3.98,4.08 4.39,8.46z"/>
      <path class="fil2" d="M1759.77 1106.7c0,4.69 -0.92,8.46 -2.86,8.46 -1.93,0 -3.97,-3.77 -4.48,-8.46 -0.51,-4.69 0.91,-8.46 2.95,-8.46 2.04,0 3.97,4.08 4.39,8.46z"/>
      <path class="fil12" d="M2229.18 1058.58c0.28,2.36 0.42,4.77 0.42,7.16 0,33.78 -27.39,61.17 -61.17,61.17 -0.54,0 -1.1,-0.02 -1.64,-0.02 -38.47,-0.71 -70.38,-30.04 -74.33,-68.31 -0.24,-2.19 -0.36,-4.42 -0.36,-6.63 0,-34.12 27.67,-61.79 61.79,-61.79 0.32,0 0.66,0.01 0.97,0.01 38.51,0.72 70.43,30.1 74.33,68.41l-0 0z"/>
      <path class="fil2" d="M2203.89 1058.58c0.15,1.39 0.23,2.79 0.23,4.19 0,21.45 -17.4,38.85 -38.85,38.85 -0.21,0 -0.43,0 -0.64,0 -24.25,-0.44 -44.39,-18.91 -46.9,-43.03 -0.15,-1.39 -0.23,-2.79 -0.23,-4.19 0,-21.51 17.44,-38.95 38.95,-38.95 0.21,0 0.43,0 0.63,0 24.25,0.49 44.34,19 46.8,43.13l0 0z"/>
      <path class="fil4" d="M2203.89 1058.58c0.15,1.39 0.23,2.79 0.23,4.19 0,21.45 -17.4,38.85 -38.85,38.85 -0.21,0 -0.43,0 -0.64,0 -24.25,-0.44 -44.39,-18.91 -46.9,-43.03 -0.15,-1.39 -0.23,-2.79 -0.23,-4.19 0,-21.51 17.44,-38.95 38.95,-38.95 0.21,0 0.43,0 0.63,0 24.25,0.49 44.34,19 46.8,43.13l0 0z"/>
      <path class="fil2" d="M2147.71 1080.09c4,-3.92 9.38,-6.12 14.99,-6.12 5.6,0 10.98,2.19 14.98,6.12 0.66,0.6 1.51,0.92 2.4,0.92 1.97,0 3.57,-1.6 3.57,-3.57 0,-1.01 -0.43,-1.97 -1.17,-2.65 -5.46,-5.31 -12.78,-8.28 -20.39,-8.28 -7.61,0 -14.93,2.97 -20.39,8.28 -3.16,3.26 2.55,8.46 5.71,5.3l0.31 0z"/>
      <path class="fil2" d="M2148.94 1044.51c0,4.69 -0.92,8.46 -2.95,8.46 -2.04,0 -3.98,-3.77 -4.39,-8.46 -0.41,-4.69 0.91,-8.46 2.95,-8.46 2.04,0 4.39,3.77 4.39,8.46z"/>
      <path class="fil2" d="M2177.18 1044.51c0,4.69 -0.92,8.46 -2.86,8.46 -1.94,0 -3.97,-3.77 -4.39,-8.46 -0.41,-4.69 0.82,-8.46 2.86,-8.46 2.04,0 3.97,3.77 4.39,8.46z"/>
      <ellipse class="fil12" transform="matrix(0.603394 -0.630314 0.630314 0.603394 1749.05 1330.84)" rx="75.02" ry="81.79"/>
      <ellipse class="fil2" transform="matrix(0.603394 -0.630314 0.630314 0.603394 1749.05 1330.43)" rx="47.21" ry="51.53"/>
      <path class="fil4" d="M1777.53 1300.68c-17.93,-17.17 -45.23,-17.77 -60.96,-1.34 -15.73,16.43 -13.94,43.68 4,60.85 17.94,17.17 45.23,17.77 60.96,1.34 15.73,-16.43 13.94,-43.67 -4,-60.85z"/>
      <path class="fil2" d="M1728.97 1344.16c5.71,5.57 13.39,8.7 21.37,8.7 7.98,0 15.65,-3.12 21.36,-8.69l-0.61 -7.14 -42.82 -0 0.71 7.14z"/>
      <path class="fil2" d="M1743.45 1317.65c-2.52,-2.42 -5.88,-3.77 -9.38,-3.77 -3.5,0 -6.86,1.35 -9.38,3.77 -2.55,2.24 1.73,6.22 4.28,3.87 1.44,-1.43 3.38,-2.23 5.4,-2.23 2.03,0 3.97,0.81 5.41,2.23 2.95,2.35 6.52,-1.63 3.67,-3.87l0 0z"/>
      <path class="fil2" d="M1771.69 1317.65c-2.52,-2.42 -5.88,-3.77 -9.38,-3.77 -3.5,0 -6.86,1.35 -9.38,3.77 -2.55,2.24 1.73,6.22 4.28,3.87 1.47,-1.41 3.42,-2.2 5.46,-2.2 2.03,0 3.99,0.79 5.45,2.2 2.86,2.35 6.53,-1.63 3.57,-3.87l0 -0z"/>
      <polygon class="fil2" points="2524.96,1818.88 2208.79,1818.88 2208.79,1870.27 2841.13,1870.27 2841.13,1849.16 "/>
      <polygon class="fil5" points="2524.96,1818.88 2208.79,1818.88 2208.79,1870.27 2841.13,1870.27 2841.13,1849.16 "/>
      <polygon class="fil5" points="2524.96,1870.27 2208.79,1870.27 2208.79,1818.88 2524.96,1849.16 "/>
      <g>
       <polygon class="fil4" points="3538.01,1260.46 3494.47,763.21 3435.54,768.41 3183.4,1495.87 3464.91,1471 "/>
      </g>
      <g>
       <polygon class="fil4" points="2199,1552.26 2441.66,852.42 2168.72,852.42 1926.06,1552.26 "/>
      </g>
      <polygon class="fil4" points="1211.64,1527.79 1410.76,953.46 1401.69,849.77 1180.44,830.5 946.65,1504.75 "/>
     </g>
     <g id="freepik--Table--inject-3">
      <path class="fil2" d="M1009.46 1909.92l2031.61 0 0 43.33c0,9.68 -7.85,17.53 -17.54,17.53l-1996.13 0c-9.68,-0 -17.53,-7.86 -17.53,-17.54l0 -43.33 -0.41 0z"/>
      <path class="fil3" d="M1009.46 1909.92l2031.61 0 0 43.33c0,9.68 -7.85,17.53 -17.54,17.53l-1996.13 0c-9.68,-0 -17.53,-7.86 -17.53,-17.54l0 -43.33 -0.41 0z"/>
      <path class="fil15" d="M1009.46 1909.92l919.66 0 0 61.17 -901.72 0c-9.68,0 -17.53,-7.85 -17.53,-17.54l0 -43.33 -0.41 -0.3z"/>
      <path class="fil2" d="M968.06 1870.37l2114.4 0c11.43,-0 20.69,9.27 20.69,20.69l0 9.59c-0,11.42 -9.27,20.69 -20.7,20.69l-2114.4 0c-11.42,-0 -20.69,-9.27 -20.69,-20.7l0 -9.58c0,-11.43 9.27,-20.7 20.7,-20.7z"/>
      <path class="fil16" d="M968.06 1870.37l961.05 0 0 50.98 -961.05 0c-11.26,-0 -20.39,-9.14 -20.39,-20.39l0 -9.58c-0,-0.2 -0.01,-0.42 -0.01,-0.61 0,-11.26 9.13,-20.39 20.39,-20.39 0,0 0.01,0 0.01,0l-0 0.01z"/>
      <path class="fil12" d="M1821.86 3196.63l-705.14 0c-42.33,-0 -76.67,-34.34 -76.67,-76.68l-0 -1072.28c0,-42.34 34.34,-76.68 76.68,-76.68l705.14 0c42.34,0 76.68,34.33 76.68,76.67l-0.01 1072.29c0.01,42.33 -34.32,76.67 -76.66,76.67l-0 0zm-705.14 -1184.85c-19.79,0.05 -35.83,16.09 -35.89,35.89l-0 1072.29c0.06,19.79 16.1,35.83 35.9,35.89l705.14 0c19.79,-0.06 35.84,-16.1 35.89,-35.9l-0 -1072.28c-0.05,-19.8 -16.09,-35.84 -35.89,-35.9l-705.14 0z"/>
      <g>
       <path class="fil17" d="M1821.86 3196.63l-705.14 0c-42.33,-0 -76.67,-34.34 -76.67,-76.68l-0 -1072.28c0,-42.34 34.34,-76.68 76.68,-76.68l705.14 0c42.34,0 76.68,34.33 76.68,76.67l-0.01 1072.29c0.01,42.33 -34.32,76.67 -76.66,76.67l-0 0zm-705.14 -1184.85c-19.79,0.05 -35.83,16.09 -35.89,35.89l-0 1072.29c0.06,19.79 16.1,35.83 35.9,35.89l705.14 0c19.79,-0.06 35.84,-16.1 35.89,-35.9l-0 -1072.28c-0.05,-19.8 -16.09,-35.84 -35.89,-35.9l-705.14 0z"/>
      </g>
      <path class="fil3" d="M1821.86 1971l-705.14 0c-39.31,0.04 -72.24,29.81 -76.26,68.92l41.29 0.01c3.63,-16.41 18.16,-28.11 34.97,-28.14l705.14 0c16.81,0.03 31.35,11.73 34.97,28.14l41.29 0c-4.02,-39.11 -36.95,-68.88 -76.26,-68.92l0 0z"/>
      <path class="fil12" d="M2919.53 3196.63l-705.14 0c-42.34,-0 -76.67,-34.34 -76.67,-76.68l0 -1072.28c-0,-42.34 34.33,-76.68 76.67,-76.68l705.14 0c42.32,0.06 76.61,34.35 76.67,76.67l0 1072.3c-0.06,42.32 -34.35,76.61 -76.67,76.67l0 0zm-705.14 -1184.85c-19.79,0.05 -35.83,16.09 -35.89,35.89l0 1072.29c0.05,19.79 16.1,35.83 35.89,35.89l705.14 0c19.79,-0.06 35.83,-16.1 35.89,-35.9l-0 -1072.28c-0.05,-19.8 -16.09,-35.84 -35.89,-35.9l-705.14 0z"/>
      <path class="fil18" d="M2919.53 3196.63l-705.14 0c-42.34,-0 -76.67,-34.34 -76.67,-76.68l0 -1072.28c-0,-42.34 34.33,-76.68 76.67,-76.68l705.14 0c42.32,0.06 76.61,34.35 76.67,76.67l0 1072.3c-0.06,42.32 -34.35,76.61 -76.67,76.67l0 0zm-705.14 -1184.85c-19.79,0.05 -35.83,16.09 -35.89,35.89l0 1072.29c0.05,19.79 16.1,35.83 35.89,35.89l705.14 0c19.79,-0.06 35.83,-16.1 35.89,-35.9l-0 -1072.28c-0.05,-19.8 -16.09,-35.84 -35.89,-35.9l-705.14 0z"/>
      <path class="fil3" d="M2919.53 1971l-705.14 0c-39.31,0.04 -72.24,29.81 -76.26,68.92l40.78 0.01c3.67,-16.43 18.23,-28.12 35.07,-28.14l705.14 0c0.04,0 0.1,0 0.15,0 16.99,0 31.66,11.92 35.13,28.55l41.29 0c-3.82,-39.22 -36.74,-69.22 -76.16,-69.34l0 0z"/>
     </g>
     <g id="freepik--Device--inject-3">
      <path class="fil2" d="M862.84 2222.94l788.64 0c47.41,-0.01 85.85,38.43 85.85,85.84l-0 805.98c0,47.4 -38.44,85.84 -85.85,85.84l-788.64 0c-47.4,-0 -85.85,-38.44 -85.85,-85.85l0 -805.97c0,-47.41 38.44,-85.86 85.85,-85.86z"/>
      <path class="fil16" d="M862.84 2222.94l788.64 0c47.41,-0.01 85.85,38.43 85.85,85.84l-0 805.98c0,47.4 -38.44,85.84 -85.85,85.84l-788.64 0c-47.4,-0 -85.85,-38.44 -85.85,-85.85l0 -805.97c0,-47.41 38.44,-85.86 85.85,-85.86z"/>
      <path class="fil19" d="M777 3114.05l0 0.61c0,0.03 0,0.07 0,0.1 0,47.41 38.44,85.85 85.85,85.85 0,0 0,0 0,0l788.64 0c0,-0 0,-0 0,-0 47.41,0 85.85,-38.44 85.85,-85.85 0,-0.03 0,-0.07 0,-0.1l0 -0.61 -960.34 0z"/>
      <path class="fil2" d="M1432.79 2222.94l218.7 0c47.41,-0.01 85.85,38.43 85.85,85.84l-0 805.98c0,47.4 -38.44,85.84 -85.85,85.84l-218.7 0c-47.4,-0 -85.85,-38.44 -85.85,-85.85l-0 -805.97c0,-47.41 38.45,-85.86 85.85,-85.86z"/>
      <path class="fil15" d="M1432.79 2268.82l218.7 0c22.07,-0.01 39.97,17.89 39.97,39.96l-0.01 805.98c0.01,22.07 -17.89,39.97 -39.96,39.97l-218.7 0c-22.07,0 -39.97,-17.9 -39.97,-39.97l-0 -805.97c0,-22.08 17.9,-39.98 39.97,-39.98z"/>
      <polygon class="fil20" points="1422.39,2396.26 1661.98,2396.26 1661.98,2332.54 1422.39,2332.54 "/>
      <polygon class="fil20" points="1422.39,2472.73 1661.98,2472.73 1661.98,2409.01 1422.39,2409.01 "/>
      <circle class="fil2" cx="1542.18" cy="2711.72" r="49.86"/>
      <g>
       <path class="fil10" d="M1553.71 2701.83c3.1,3.08 4.85,7.27 4.85,11.64 0,9.06 -7.35,16.42 -16.42,16.42 -9.07,0 -16.42,-7.35 -16.42,-16.42 0,-4.37 1.75,-8.56 4.84,-11.64 4.69,-5.1 -2.95,-12.85 -7.75,-7.64 -5.12,5.12 -8,12.07 -8,19.32 0,15.09 12.24,27.33 27.33,27.33 15.09,0 27.32,-12.24 27.32,-27.33 0,-7.24 -2.88,-14.2 -8,-19.32 -4.8,-5.2 -12.44,2.55 -7.75,7.64l-0 0z"/>
       <path class="fil10" d="M1537.19 2682.66l0 24.88c0.38,2.72 2.71,4.76 5.46,4.76 2.75,0 5.08,-2.03 5.45,-4.76l-0.01 -24.87c-0.36,-2.73 -2.69,-4.77 -5.45,-4.77 -2.75,0 -5.08,2.03 -5.46,4.76l-0 0z"/>
      </g>
      <circle class="fil2" cx="1447.67" cy="2859.35" r="15.29"/>
      <circle class="fil2" cx="1510.68" cy="2859.35" r="15.29"/>
      <circle class="fil2" cx="1573.69" cy="2859.35" r="15.29"/>
      <circle class="fil2" cx="1636.7" cy="2859.35" r="15.29"/>
      <circle class="fil2" cx="1479.18" cy="2913.7" r="15.29"/>
      <circle class="fil2" cx="1542.18" cy="2913.7" r="15.29"/>
      <circle class="fil2" cx="1605.2" cy="2913.7" r="15.29"/>
      <circle class="fil2" cx="1447.67" cy="2973.96" r="15.29"/>
      <circle class="fil2" cx="1510.68" cy="2973.96" r="15.29"/>
      <circle class="fil2" cx="1573.69" cy="2973.96" r="15.29"/>
      <circle class="fil2" cx="1636.7" cy="2973.96" r="15.29"/>
      <circle class="fil2" cx="1479.18" cy="3028.3" r="15.29"/>
      <circle class="fil2" cx="1542.18" cy="3028.3" r="15.29"/>
      <circle class="fil2" cx="1605.2" cy="3028.3" r="15.29"/>
      <circle class="fil2" cx="1447.67" cy="3088.56" r="15.29"/>
      <circle class="fil2" cx="1510.68" cy="3088.56" r="15.29"/>
      <circle class="fil2" cx="1573.69" cy="3088.56" r="15.29"/>
      <circle class="fil2" cx="1636.7" cy="3088.56" r="15.29"/>
     </g>
     <g id="freepik--Character--inject-3">
      <path class="fil21" d="M2843.57 1771.47l-61.17 -27.73 -86.36 35.99 0 43.02c0,0 134.07,-4.49 133.97,-4.28 -0.11,0.21 151.2,50.37 207.08,42.62 55.87,-7.75 233.38,-255.61 233.38,-255.61l-89.42 -78.2 -170.07 242.35 -167.41 1.84z"/>
      <path class="fil19" d="M2843.57 1771.47l-61.17 -27.73 -86.36 35.99 0 43.02c0,0 134.07,-4.49 133.97,-4.28l10.2 3.37 43.23 -50.98 -39.87 0.61z"/>
      <path class="fil12" d="M3120.9 1597.73c0,0 61.79,-109.91 101.34,-144.78 23.96,-21.2 57.4,-27.73 79.93,-29.67 0.68,-0.05 1.36,-0.08 2.04,-0.08 13.47,0 24.4,10.88 24.47,24.35 0,43.54 -11.01,138.05 -100.43,235.42l-107.36 -85.23z"/>
      <path class="fil2" d="M3120.9 1577.03c47.86,24.41 88.84,60.64 118.98,105.11l-24.06 18.56c-31.29,-38.15 -68.61,-71.11 -110.4,-97.37l15.48 -26.3z"/>
      <path class="fil22" d="M2969.7 1180.01l-30.59 47.92c6.8,4.35 14.72,6.66 22.78,6.66 5.25,0 10.47,-0.98 15.35,-2.88l-7.54 -51.7z"/>
      <path class="fil2" d="M2964.6 1210.39c-0.8,0.05 -1.63,0.08 -2.45,0.08 -20.1,0 -36.4,-16.3 -36.4,-36.4 0,-20.1 16.3,-36.4 36.4,-36.4 20.07,0 36.35,16.25 36.4,36.32 0.01,0.38 0.02,0.77 0.02,1.15 0,18.97 -15.02,34.55 -33.97,35.25zm0 -65.05c-0.85,-0.07 -1.7,-0.11 -2.55,-0.11 -15.93,0 -28.86,12.92 -28.86,28.86 0,15.93 12.92,28.86 28.86,28.86 15.93,0 28.85,-12.92 28.85,-28.86 0,-0.03 0,-0.06 0,-0.09 0.01,-0.34 0.02,-0.7 0.02,-1.05 0,-14.75 -11.59,-26.91 -26.33,-27.6l0 -0z"/>
      <path class="fil23" d="M2951.35 1173.69c0,6.22 3.06,11.32 7.14,11.32 4.08,0 7.64,-5.1 7.54,-11.12 -0.1,-6.01 -3.06,-11.31 -7.14,-11.31 -4.08,0 -7.44,4.58 -7.54,11.11z"/>
      <path class="fil21" d="M3190.13 1134.64c2.75,82.28 5.71,117.15 -31.61,163.13 -59.13,48.73 -157.93,54.45 -185.25,-25.39 -24.47,-71.37 -24.88,-193.72 52.2,-234.5 16.17,-8.57 34.22,-13.06 52.53,-13.06 61.14,0 111.04,48.99 112.13,110.12l0 -0.31z"/>
      <path class="fil24" d="M3074.61 1332.74l-0.61 -4.08c-1.04,-7.34 -7.33,-12.79 -14.74,-12.79 -1.36,0 -2.72,0.19 -4.02,0.56l-33.44 9.08c12.93,5.21 26.78,7.91 40.74,7.91 4.03,0 8.07,-0.23 12.07,-0.66l-0 -0.01z"/>
      <path class="fil23" d="M2973.57 1145.24c-0.17,0.03 -0.34,0.04 -0.51,0.04 -0.92,0 -1.79,-0.43 -2.35,-1.16 -4.85,-6.01 -12.18,-9.52 -19.91,-9.52 -0.43,0 -0.87,0.02 -1.29,0.04 -0.26,0.07 -0.53,0.1 -0.8,0.1 -1.8,0 -3.26,-1.46 -3.26,-3.26 0,-1.8 1.46,-3.26 3.26,-3.26 0.03,0 0.06,0 0.09,0 0.71,-0.05 1.43,-0.07 2.14,-0.07 9.61,0 18.72,4.34 24.78,11.8 0.58,0.62 0.9,1.44 0.9,2.29 0,0.85 -0.32,1.67 -0.9,2.29l0 0c-0.53,0.47 -1.2,0.72 -1.9,0.72 -0.08,0 -0.16,-0 -0.24,-0.01z"/>
      <polygon class="fil21" points="3071.55,1311.94 3089.6,1434.09 3191.66,1412.99 3158.93,1287.88 "/>
      <path class="fil23" d="M2969.29 1067.96c34.76,66.07 58.83,5.61 52.41,58.94 -6.42,53.32 12.75,70.55 12.75,70.55l69.94 104.3c2.55,3.66 6.73,5.84 11.2,5.84 1.97,0 3.93,-0.43 5.72,-1.25 6.82,-3.77 14.49,-5.76 22.28,-5.76 4.76,0 9.5,0.74 14.02,2.19 1.61,0.71 3.36,1.07 5.12,1.07 3.02,0 5.93,-1.07 8.23,-3.01 35.63,-33.69 58.57,-78.81 64.73,-127.45 22.53,-143.76 -87.99,-165.78 -87.99,-165.78 -61.17,-12.74 -45.67,-77.79 -82.17,-77.79 -27.84,0 -19.67,45.78 -19.67,45.78 0,0 -29.77,-22.32 -47.11,-14.68 -22.32,10.2 -2.55,55.57 -2.55,55.57 0,0 -60.96,-13.35 -26.9,51.49z"/>
      <polygon class="fil2" points="3041.17,1158.7 2939.21,1158.7 2944.11,1148.51 3041.17,1148.51 "/>
      <path class="fil25" d="M3020.27 1171.34c-0.68,3.74 -1.02,7.53 -1.02,11.33 0,12.85 3.92,25.42 11.22,35.98 12.95,18.25 33.55,10.2 41.8,-9.28 7.44,-17.64 9.58,-48.12 -9.18,-59.44 -4.36,-2.53 -9.32,-3.87 -14.37,-3.87 -14.52,0 -26.75,10.86 -28.45,25.28z"/>
      <path class="fil12" d="M3044.03 1389.43c0,0 65.56,-61.99 134.28,-56.89 46.7,3.37 61.17,61.99 61.17,61.99l-195.45 -5.1z"/>
      <path class="fil6" d="M3044.03 1389.43c0,0 65.56,-61.99 134.28,-56.89 46.7,3.37 61.17,61.99 61.17,61.99l-195.45 -5.1z"/>
      <path class="fil12" d="M3088.28 2138.82l-143.56 -701.06c-0.76,-3.35 -1.15,-6.8 -1.15,-10.23 0,-24.07 18.54,-44.11 42.55,-45.95 90.03,-7.54 271.61,-14.78 332.38,40.78 141.52,129.9 152.94,726.45 152.94,726.45l-383.16 -9.99z"/>
      <path class="fil26" d="M2984.99 1426.85c-14.02,5.56 -26.9,13.66 -38.03,23.86l47.21 230.63c42.22,-94.51 39.25,-254.89 39.25,-254.89l-48.43 0.41z"/>
      <path class="fil21" d="M2557.38 1762.7l-61.17 -30.59 -85.34 39.56 0 47.1c0,0 132.55,-4.89 132.55,-4.59 0,0.3 149.47,55.16 204.73,46.7 55.26,-8.46 231.14,-280.39 231.14,-280.39l-88.4 -85.85 -168.23 266.01 -165.28 2.04z"/>
      <path class="fil12" d="M2832.05 1572.14c0,0 61.17,-120.72 100.23,-158.96 39.05,-38.23 103.69,-33.03 103.69,-33.03 0,0 22.94,139.89 -97.67,285.48l-106.24 -93.49z"/>
      <path class="fil12" d="M2832.05 1549.4c48.57,27.63 89.31,67.37 118.08,115.3l-23.76 20.39c0,0 -48.53,-67.9 -109.2,-106.85l14.87 -28.84z"/>
      <path class="fil6" d="M2832.05 1549.4c48.57,27.63 89.31,67.37 118.08,115.3l-23.76 20.39c0,0 -48.53,-67.9 -109.2,-106.85l14.87 -28.84z"/>
      <polygon class="fil21" points="3046.98,2904.12 3081.95,3073.37 3150.87,3063.17 3134.25,2898.41 "/>
      <polygon class="fil3" points="3145.16,3006.99 3134.25,2898.41 3046.98,2904.12 3068.8,3009.94 "/>
      <path class="fil2" d="M3455.93 2133.72c0,0 35.07,183.53 -84.73,183.53 -119.8,0 -279.16,39.15 -279.16,39.15 0,0 45.88,43.54 56.07,598.9l-99.41 4.28c0,0 -165.17,-626.84 -132.55,-695.76 45.88,-96.96 283.44,-130.1 283.44,-130.1l256.32 0z"/>
      <path class="fil3" d="M3455.93 2133.72c0,0 35.07,183.53 -84.73,183.53 -119.8,0 -279.16,39.15 -279.16,39.15 0,0 45.88,43.54 56.07,598.9l-99.41 4.28c0,0 -165.17,-626.84 -132.55,-695.76 45.88,-96.96 283.44,-130.1 283.44,-130.1l256.32 0z"/>
      <polygon class="fil2" points="3027.61,2929.81 3162.81,2926.45 3158.42,2982.52 3045.04,2987.32 "/>
      <polygon class="fil4" points="3027.61,2929.81 3162.81,2926.45 3158.42,2982.52 3045.04,2987.32 "/>
      <path class="fil2" d="M3050.96 3084.07c-2.29,0.52 -4.63,0.78 -6.98,0.78 -5.18,0 -10.29,-1.29 -14.85,-3.75 -0.98,-1.19 -1.53,-2.69 -1.53,-4.24 0,-1.12 0.28,-2.22 0.83,-3.2 0.95,-2.13 2.71,-3.78 4.89,-4.59 11.52,-4.69 38.33,6.52 39.46,7.04 0.69,0.25 1.15,0.9 1.15,1.63 0,0.73 -0.46,1.39 -1.15,1.63 -7.09,2.21 -14.43,3.8 -21.82,4.69l0 0zm-13.16 -12.64c-1.09,0.11 -2.16,0.38 -3.16,0.81 -1.43,0.39 -2.57,1.46 -3.06,2.86 -1.02,2.24 0,3.16 0,3.67 3.87,4.28 22.02,2.24 35.18,-1.02 -9.17,-3.86 -19.01,-6.01 -28.96,-6.33l0 0.01z"/>
      <path class="fil2" d="M3072.37 3079.38l-0.72 0c-9.08,-2.75 -28.14,-16.21 -27.63,-24.47 0,-2.04 1.12,-4.48 5.81,-5.6 0.98,-0.24 2,-0.37 3.01,-0.37 2.56,0 5.06,0.76 7.18,2.19 7.45,7.07 12.52,16.33 14.48,26.41 0.01,0.09 0.02,0.19 0.02,0.28 0,0.52 -0.23,1.02 -0.64,1.34 -0.26,0.22 -0.59,0.34 -0.92,0.34 -0.21,0 -0.42,-0.05 -0.61,-0.14l0 0.01zm-21 -26.92l-1.02 0c-3.06,0.61 -3.06,1.84 -3.16,2.35 0,4.89 12.95,15.7 22.43,19.88 -1.89,-7.87 -6.14,-14.99 -12.14,-20.4 -1.44,-0.98 -3.16,-1.51 -4.92,-1.51 -0.4,0 -0.8,0.03 -1.2,0.08l0 -0.4z"/>
      <path class="fil2" d="M3078.79 3068.47l78.31 -9.38c0.3,-0.05 0.6,-0.08 0.91,-0.08 2.66,0 5.01,1.72 5.83,4.25l21.82 61.99c0.49,1.22 0.76,2.53 0.76,3.86 0,4.43 -2.87,8.35 -7.08,9.71l-2.14 0.51c-28.34,2.95 -53.63,4.39 -88.81,8.66 -41.5,4.99 -30.59,8.67 -79.12,15.19 -29.36,3.97 -38.74,-28.86 -26.41,-31.91 56.18,-14.07 60.05,-32.01 79.53,-55.06 4.35,-4.47 10.19,-7.23 16.42,-7.75l0 0z"/>
      <polygon class="fil21" points="2845.31,2949.49 2910.36,3107.32 2973.67,3094.67 2930.14,2925.83 "/>
      <polygon class="fil3" points="2959.09,3038.39 2930.14,2925.83 2845.31,2949.49 2887.62,3052.06 "/>
      <path class="fil2" d="M3455.93 2133.72c0,0 74.02,191.38 -170.58,183.53 -93.7,-3.06 -499.59,91.76 -499.59,91.76 0,0 73.11,38.24 164.86,550.57l-103.79 23.55c0,0 -294.46,-581.77 -261.93,-650.59 45.88,-97.07 528.75,-198.82 528.75,-198.82l342.28 0z"/>
      <polygon class="fil2" points="2834.19,2976.5 2957.36,2950.2 2970.1,3001.18 2852.04,3028.4 "/>
      <polygon class="fil4" points="2834.19,2976.5 2957.36,2950.2 2970.1,3001.18 2852.04,3028.4 "/>
      <path class="fil2" d="M2871.21 3114.56c-2.3,0.53 -4.65,0.81 -7.01,0.81 -5.14,0 -10.2,-1.3 -14.71,-3.77 -1.05,-1.19 -1.63,-2.72 -1.63,-4.3 0,-1.1 0.28,-2.18 0.81,-3.14 0.98,-2.1 2.73,-3.75 4.89,-4.59 11.62,-4.8 38.33,6.52 39.56,7.04 0.61,0.31 1.01,0.94 1.02,1.63 -0.08,0.72 -0.55,1.34 -1.22,1.63 -7.07,2.18 -14.37,3.74 -21.71,4.68l0 0.01zm-13.05 -12.64c-1.12,0.11 -2.22,0.39 -3.26,0.81 -1.36,0.44 -2.47,1.44 -3.06,2.75 -1.02,2.24 0,3.26 0,3.78 3.98,4.28 22.02,2.24 35.18,-1.02 -9.12,-3.9 -18.93,-6.05 -28.86,-6.32l0 0z"/>
      <path class="fil2" d="M2892.62 3109.87c-0.11,0.05 -0.24,0.08 -0.36,0.08 -0.12,0 -0.24,-0.03 -0.36,-0.08 -8.97,-2.75 -28.14,-16.31 -27.53,-24.57 0,-1.94 1.12,-4.49 5.71,-5.51 1.01,-0.24 2.04,-0.37 3.07,-0.37 2.53,0 5,0.73 7.13,2.1 7.5,7.07 12.58,16.37 14.48,26.51 0.03,0.13 0.04,0.26 0.04,0.4 0,0.47 -0.2,0.92 -0.56,1.23 -0.29,0.21 -0.64,0.32 -1,0.32 -0.22,0 -0.43,-0.04 -0.63,-0.11l0 0zm-21 -27.02l-1.02 0c-2.95,0.61 -3.06,1.83 -3.16,2.35 0,4.89 12.95,15.7 22.53,19.88 -1.86,-8.05 -6.14,-15.35 -12.24,-20.91 -1.59,-0.96 -3.4,-1.47 -5.26,-1.47 -0.29,0 -0.57,0.01 -0.86,0.04l0 0.11z"/>
      <path class="fil2" d="M2899.04 3098.96l78.41 -9.49c0.23,-0.03 0.46,-0.04 0.69,-0.04 2.7,0 5.11,1.69 6.04,4.22l21.82 62.09c0.49,1.21 0.75,2.51 0.75,3.82 0,4.46 -2.91,8.41 -7.17,9.73l-2.14 0c-28.34,2.85 -53.63,4.39 -88.81,8.56 -41.5,4.99 -30.59,8.77 -79.02,15.3 -29.36,3.87 -38.74,-28.86 -26.51,-32.02 56.18,-13.97 60.05,-31.91 79.63,-55.06 4.36,-4.31 10.18,-6.86 16.31,-7.14l0 0.01z"/>
      <path class="fil12" d="M3679.93 3000.06c-62.3,-10.2 -154.77,-24.67 -195.96,-27.73 -8.97,-0.71 -20.39,-1.22 -32.84,-1.53l0 -319.63 -78.2 0 0 319.64c-12.54,0 -23.86,0.82 -32.93,1.53 -40.78,3.06 -133.56,17.54 -195.86,27.73 -35.86,5.92 -62.19,36.95 -62.19,73.3l0 16.21 76.37 0 10.2 -22.74c0,0 142.74,-24.67 190.86,-28.24 17.63,-0.98 35.46,-1.46 53.17,-1.46 17.71,0 35.55,0.47 53.14,1.43 48.12,3.57 190.77,28.24 190.77,28.24l10.2 22.74 75.99 0.03 0 -16.21c-0.05,-36.52 -26.64,-67.6 -62.71,-73.31z"/>
      <path class="fil18" d="M3679.93 3000.06c-62.3,-10.2 -154.77,-24.67 -195.96,-27.73 -8.97,-0.71 -20.39,-1.22 -32.84,-1.53l0 -319.63 -78.2 0 0 319.64c-12.54,0 -23.86,0.82 -32.93,1.53 -40.78,3.06 -133.56,17.54 -195.86,27.73 -35.86,5.92 -62.19,36.95 -62.19,73.3l0 16.21 76.37 0 10.2 -22.74c0,0 142.74,-24.67 190.86,-28.24 17.63,-0.98 35.46,-1.46 53.17,-1.46 17.71,0 35.55,0.47 53.14,1.43 48.12,3.57 190.77,28.24 190.77,28.24l10.2 22.74 75.99 0.03 0 -16.21c-0.05,-36.52 -26.64,-67.6 -62.71,-73.31z"/>
      <path class="fil12" d="M3349.19 2390.46l125.2 0 0 270.19c0,20.09 -16.3,36.39 -36.4,36.39l-52.92 0c-20.1,-0 -36.4,-16.3 -36.4,-36.41l0 -270.19 0.51 0.01z"/>
      <polygon class="fil3" points="3349.19,2465.09 3474.9,2465.09 3474.9,2390.45 3349.19,2390.45 "/>
      <circle class="fil12" cx="3710.32" cy="3143.1" r="53.53"/>
      <circle class="fil12" cx="3113.76" cy="3143.1" r="53.53"/>
      <path class="fil2" d="M3836.95 2326.83c-74.95,-19.03 -152.06,-29.66 -229.29,-31.56 -79.63,-1.94 -377.25,0 -448.61,0 -0.38,-0.06 -1.14,-0.06 -1.52,-0.06 -85.6,0 -171.18,10.76 -254.12,31.65 -52.51,13.36 -36.3,89.21 11.12,90.13 4.18,0 905.08,0 908.44,0 49.58,2.1 67.63,-76.51 14,-90.17z"/>
      <path class="fil14" d="M3836.95 2326.83c-74.95,-19.03 -152.06,-29.66 -229.29,-31.56 -79.63,-1.94 -377.25,0 -448.61,0 -0.38,-0.06 -1.14,-0.06 -1.52,-0.06 -85.6,0 -171.18,10.76 -254.12,31.65 -52.51,13.36 -36.3,89.21 11.12,90.13 4.18,0 905.08,0 908.44,0 49.58,2.1 67.63,-76.51 14,-90.17z"/>
      <path class="fil2" d="M2927.69 2415.33c75.46,-19.12 153.54,-28.98 231.49,-28.98 77.96,0 156.03,9.86 231.46,29 57.3,14.58 81.56,-73.92 24.37,-88.5 -83.54,-21.2 -169.62,-31.99 -255.83,-31.99 -86.21,0 -172.29,10.79 -255.84,32 -57.2,14.58 -32.93,103.08 24.37,88.5l-0.03 -0.03z"/>
      <g>
       <path class="fil27" d="M2927.69 2415.33c75.46,-19.12 153.54,-28.98 231.49,-28.98 77.96,0 156.03,9.86 231.46,29 57.3,14.58 81.56,-73.92 24.37,-88.5 -83.54,-21.2 -169.62,-31.99 -255.83,-31.99 -86.21,0 -172.29,10.79 -255.84,32 -57.2,14.58 -32.93,103.08 24.37,88.5l-0.03 -0.03z"/>
      </g>
      <path class="fil2" d="M3595.92 1670.23c-0.2,-0.01 -0.42,-0.01 -0.63,-0.01 -10.26,0 -19.72,5.6 -24.66,14.59 -90.28,151.35 -138.08,324.85 -138.08,501.23 0,58.55 5.37,117.1 15.77,174.7 1.3,12.19 11.3,21.53 23.5,22.07 18.46,1.32 345.53,0 356.85,0 0.26,0 0.51,0.01 0.76,0.01 18.19,0 32.93,-14.75 32.93,-32.93 0,-1.82 -0.15,-3.63 -0.45,-5.41 -9.15,-52.11 -13.84,-105.47 -13.84,-158.49 0,-165.66 45.09,-328.41 130.27,-470.4 13.97,-23.25 -6.63,-45.07 -27.43,-45.47 -9.27,-0.08 -333.81,0.53 -355.01,0.12z"/>
      <path class="fil3" d="M3595.92 1670.23c-0.2,-0.01 -0.42,-0.01 -0.63,-0.01 -10.26,0 -19.72,5.6 -24.66,14.59 -90.28,151.35 -138.08,324.85 -138.08,501.23 0,58.55 5.37,117.1 15.77,174.7 1.3,12.19 11.3,21.53 23.5,22.07 18.46,1.32 345.53,0 356.85,0 0.26,0 0.51,0.01 0.76,0.01 18.19,0 32.93,-14.75 32.93,-32.93 0,-1.82 -0.15,-3.63 -0.45,-5.41 -9.15,-52.11 -13.84,-105.47 -13.84,-158.49 0,-165.66 45.09,-328.41 130.27,-470.4 13.97,-23.25 -6.63,-45.07 -27.43,-45.47 -9.27,-0.08 -333.81,0.53 -355.01,0.12z"/>
      <path class="fil2" d="M3507.02 2344.57c-9.19,-52.18 -13.88,-105.51 -13.88,-158.61 0,-165.66 45.07,-328.31 130.3,-470.32 20.39,-33.85 -32.53,-64.64 -52.81,-30.59 -90.26,151.39 -138.06,324.9 -138.06,501.27 0,58.55 5.37,117.1 15.77,174.7 7.04,38.74 65.97,22.32 59.03,-16.21l-0.35 -0.26z"/>
      <g>
       <path class="fil27" d="M3507.02 2344.57c-9.19,-52.18 -13.88,-105.51 -13.88,-158.61 0,-165.66 45.07,-328.31 130.3,-470.32 20.39,-33.85 -32.53,-64.64 -52.81,-30.59 -90.26,151.39 -138.06,324.9 -138.06,501.27 0,58.55 5.37,117.1 15.77,174.7 7.04,38.74 65.97,22.32 59.03,-16.21l-0.35 -0.26z"/>
      </g>
      <path class="fil12" d="M3106.42 2078.56l315.15 288.03c21.72,20.39 54.34,-12.44 32.42,-32.42l-315.15 -288.24c-21.72,-19.88 -54.24,12.44 -32.42,32.42l0 0.21z"/>
      <g>
       <path class="fil4" d="M3106.42 2078.56l315.15 288.03c21.72,20.39 54.34,-12.44 32.42,-32.42l-315.15 -288.24c-21.72,-19.88 -54.24,12.44 -32.42,32.42l0 0.21z"/>
      </g>
      <path class="fil3" d="M3138.84 2046.14c-21.72,-19.88 -54.24,12.44 -32.42,32.42l60.26 55.16 67.9 0 -95.74 -87.58z"/>
      <path class="fil2" d="M2942.06 2092.94l432.51 0c39.36,0 39.36,-61.17 0,-61.17l-432.51 0c-39.35,0 -39.46,61.17 0,61.17z"/>
      <g>
       <path class="fil28" d="M2942.06 2092.94l432.51 0c39.36,0 39.36,-61.17 0,-61.17l-432.51 0c-39.35,0 -39.46,61.17 0,61.17z"/>
      </g>
     </g>
    </g>
   </g>
   <rect class="fil29" x="-0" width="3955.99" height="3365.21"/>
  </g>
 </g>
</svg>
